{
  "accessors": [
    {
      "bufferView": 2,
      "componentType": 5126,
      "count": 256,
      "max": [
        0.01635099947452545,
        -0.07333800196647644,
        0.015545000322163105
      ],
      "min": [
        -0.051805999130010605,
        -0.078684002161026,
        0.010518000461161137
      ],
      "type": "VEC3"
    },
    {
      "bufferView": 2,
      "byteOffset": 3072,
      "componentType": 5126,
      "count": 256,
      "max": [
        0.0,
        -0.0,
        1.0
      ],
      "min": [
        0.0,
        -0.9289930462837219,
        0.37009721994400024
      ],
      "type": "VEC3"
    },
    {
      "bufferView": 1,
      "componentType": 5126,
      "count": 256,
      "max": [
        1.0,
        1.0
      ],
      "min": [
        0.0,
        0.0
      ],
      "type": "VEC2"
    },
    {
      "bufferView": 0,
      "componentType": 5125,
      "count": 384,
      "type": "SCALAR"
    },
    {
      "bufferView": 2,
      "byteOffset": 6144,
      "componentType": 5126,
      "count": 120,
      "max": [
        -0.08068999648094177,
        -0.08048500120639801,
        0.016850000247359276
      ],
      "min": [
        -0.08272799849510193,
        -0.08456899970769882,
        0.014812000095844269
      ],
      "type": "VEC3"
    },
    {
      "bufferView": 2,
      "byteOffset": 7584,
      "componentType": 5126,
      "count": 120,
      "max": [
        1.0,
        -0.0,
        1.0
      ],
      "min": [
        -1.0,
        -0.9901557564735413,
        -1.0
      ],
      "type": "VEC3"
    },
    {
      "bufferView": 1,
      "byteOffset": 2048,
      "componentType": 5126,
      "count": 120,
      "max": [
        0.8185520172119141,
        0.3185519874095917
      ],
      "min": [
        0.6814479827880859,
        0.18144799768924713
      ],
      "type": "VEC2"
    },
    {
      "bufferView": 0,
      "byteOffset": 1536,
      "componentType": 5125,
      "count": 642,
      "type": "SCALAR"
    },
    {
      "bufferView": 2,
      "byteOffset": 9024,
      "componentType": 5126,
      "count": 628,
      "max": [
        0.021855000406503677,
        -0.0708099976181984,
        0.024974999949336052
      ],
      "min": [
        -0.057378001511096954,
        -0.08523400127887726,
        0.007621999830007553
      ],
      "type": "VEC3"
    },
    {
      "bufferView": 2,
      "byteOffset": 16560,
      "componentType": 5126,
      "count": 628,
      "max": [
        1.0,
        1.0,
        1.0
      ],
      "min": [
        -1.0,
        -1.0,
        -1.0
      ],
      "type": "VEC3"
    },
    {
      "bufferView": 1,
      "byteOffset": 3008,
      "componentType": 5126,
      "count": 628,
      "max": [
        1.0,
        1.0
      ],
      "min": [
        0.0,
        0.0
      ],
      "type": "VEC2"
    },
    {
      "bufferView": 0,
      "byteOffset": 4104,
      "componentType": 5125,
      "count": 1404,
      "type": "SCALAR"
    },
    {
      "bufferView": 2,
      "byteOffset": 24096,
      "componentType": 5126,
      "count": 2948,
      "max": [
        0.1338540017604828,
        0.08540099859237671,
        0.040240999311208725
      ],
      "min": [
        -0.1338530033826828,
        -0.08540099859237671,
        -0.0005070000188425183
      ],
      "type": "VEC3"
    },
    {
      "bufferView": 2,
      "byteOffset": 59472,
      "componentType": 5126,
      "count": 2948,
      "max": [
        1.0,
        1.0,
        1.0
      ],
      "min": [
        -1.0,
        -1.0,
        -1.0
      ],
      "type": "VEC3"
    },
    {
      "bufferView": 1,
      "byteOffset": 8032,
      "componentType": 5126,
      "count": 2948,
      "max": [
        1.0321040153503418,
        0.875
      ],
      "min": [
        -0.039055999368429184,
        0.03132300078868866
      ],
      "type": "VEC2"
    },
    {
      "bufferView": 0,
      "byteOffset": 9720,
      "componentType": 5125,
      "count": 12432,
      "type": "SCALAR"
    },
    {
      "bufferView": 2,
      "byteOffset": 94848,
      "componentType": 5126,
      "count": 1746,
      "max": [
        0.13656799495220184,
        -0.0821629986166954,
        0.2425280064344406
      ],
      "min": [
        -0.13656799495220184,
        -0.10768599808216095,
        0.00028199999360367656
      ],
      "type": "VEC3"
    },
    {
      "bufferView": 2,
      "byteOffset": 115800,
      "componentType": 5126,
      "count": 1746,
      "max": [
        1.0,
        0.9996461272239685,
        1.0
      ],
      "min": [
        -1.0,
        -0.9996461272239685,
        -1.0
      ],
      "type": "VEC3"
    },
    {
      "bufferView": 1,
      "byteOffset": 31616,
      "componentType": 5126,
      "count": 1746,
      "max": [
        1.0,
        1.0
      ],
      "min": [
        0.0,
        0.010358000174164772
      ],
      "type": "VEC2"
    },
    {
      "bufferView": 0,
      "byteOffset": 59448,
      "componentType": 5125,
      "count": 6054,
      "type": "SCALAR"
    }
  ],
  "asset": {
    "extras": {
      "author": "assetfactory (https://sketchfab.com/assetfactory)",
      "license": "SKETCHFAB Standard (https://sketchfab.com/licenses)",
      "source": "https://sketchfab.com/3d-models/router-with-antennas-53f359380d704088bbfd8d108209b57a",
      "title": "Router with antennas"
    },
    "generator": "Sketchfab-16.33.0",
    "version": "2.0"
  },
  "bufferViews": [
    {
      "buffer": 0,
      "byteLength": 83664,
      "name": "floatBufferViews",
      "target": 34963
    },
    {
      "buffer": 0,
      "byteLength": 45584,
      "byteOffset": 83664,
      "byteStride": 8,
      "name": "floatBufferViews",
      "target": 34962
    },
    {
      "buffer": 0,
      "byteLength": 136752,
      "byteOffset": 129248,
      "byteStride": 12,
      "name": "floatBufferViews",
      "target": 34962
    }
  ],
  "buffers": [
    {
      "byteLength": 266000,
      "uri": "scene.bin"
    }
  ],
  "images": [
    {
      "uri": "textures/Black_baseColor.png"
    }
  ],
  "materials": [
    {
      "doubleSided": true,
      "name": "Black",
      "pbrMetallicRoughness": {
        "baseColorTexture": {
          "index": 0
        },
        "metallicFactor": 0.24672830447817481,
        "roughnessFactor": 0.06458695022580228
      }
    },
    {
      "doubleSided": true,
      "name": "BlackPlastic",
      "pbrMetallicRoughness": {
        "baseColorFactor": [
          0.0046469190529400605,
          0.0046469190529400605,
          0.0046469190529400605,
          1.0
        ],
        "metallicFactor": 0.0,
        "roughnessFactor": 0.6
      }
    },
    {
      "doubleSided": true,
      "name": "Copper",
      "pbrMetallicRoughness": {
        "baseColorFactor": [
          1.0,
          0.3378539729378169,
          0.04167169351225248,
          1.0
        ],
        "metallicFactor": 0.9124863579523641,
        "roughnessFactor": 0.13995578646816334
      }
    },
    {
      "doubleSided": true,
      "name": "Metal",
      "pbrMetallicRoughness": {
        "metallicFactor": 0.0,
        "roughnessFactor": 0.6
      }
    },
    {
      "doubleSided": true,
      "name": "OrangePlastic",
      "pbrMetallicRoughness": {
        "baseColorFactor": [
          0.7409556523337896,
          0.2873850247335064,
          0.030060032285971542,
          1.0
        ],
        "metallicFactor": 0.0,
        "roughnessFactor": 0.0
      }
    }
  ],
  "meshes": [
    {
      "name": "Object_0",
      "primitives": [
        {
          "attributes": {
            "NORMAL": 1,
            "POSITION": 0,
            "TEXCOORD_0": 2
          },
          "indices": 3,
          "material": 2,
          "mode": 4
        }
      ]
    },
    {
      "name": "Object_1",
      "primitives": [
        {
          "attributes": {
            "NORMAL": 5,
            "POSITION": 4,
            "TEXCOORD_0": 6
          },
          "indices": 7,
          "material": 3,
          "mode": 4
        }
      ]
    },
    {
      "name": "Object_2",
      "primitives": [
        {
          "attributes": {
            "NORMAL": 9,
            "POSITION": 8,
            "TEXCOORD_0": 10
          },
          "indices": 11,
          "material": 4,
          "mode": 4
        }
      ]
    },
    {
      "name": "Object_3",
      "primitives": [
        {
          "attributes": {
            "NORMAL": 13,
            "POSITION": 12,
            "TEXCOORD_0": 14
          },
          "indices": 15,
          "material": 0,
          "mode": 4
        }
      ]
    },
    {
      "name": "Object_4",
      "primitives": [
        {
          "attributes": {
            "NORMAL": 17,
            "POSITION": 16,
            "TEXCOORD_0": 18
          },
          "indices": 19,
          "material": 1,
          "mode": 4
        }
      ]
    }
  ],
  "nodes": [
    {
      "children": [
        1
      ],
      "matrix": [
        1.0,
        0.0,
        0.0,
        0.0,
        0.0,
        2.220446049250313e-16,
        -1.0,
        0.0,
        0.0,
        1.0,
        2.220446049250313e-16,
        0.0,
        0.0,
        0.0,
        0.0,
        1.0
      ],
      "name": "Sketchfab_model"
    },
    {
      "children": [
        2,
        3,
        4,
        5,
        6
      ],
      "name": "5018f6e6211b45f690066bdef9808909.obj.cleaner.materialmerger.gles"
    },
    {
      "mesh": 0,
      "name": "Object_2"
    },
    {
      "mesh": 1,
      "name": "Object_3"
    },
    {
      "mesh": 2,
      "name": "Object_4"
    },
    {
      "mesh": 3,
      "name": "Object_5"
    },
    {
      "mesh": 4,
      "name": "Object_6"
    }
  ],
  "samplers": [
    {
      "magFilter": 9729,
      "minFilter": 9987,
      "wrapS": 10497,
      "wrapT": 10497
    }
  ],
  "scene": 0,
  "scenes": [
    {
      "name": "Sketchfab_Scene",
      "nodes": [
        0
      ]
    }
  ],
  "textures": [
    {
      "sampler": 0,
      "source": 0
    }
  ]
}
